# xmcd
#
# Track frame offsets: 
#        150
#        21291
#        39062
#        56597
#        75033
#        91266
#        107334
#        123013
#        147056
#        159099
#        170365
#        183118
#        195525
#        207078
#        218858
#        232311
#        248764
#        263793
#
# Disc length: 3708 seconds
#
# Revision: 0
# Processed by: cddbd v1.5.2PL0 Copyright (c) Steve Scherf et al.
# Submitted via: ExactAudioCopyFreeDBPlugin 1.0
#
DISCID=d50e7a12
DTITLE=Snoopy Dean - Wiggle That Thing
DYEAR=1977
DGENRE=Funk
TTITLE0=Baby Wiggle That Thing
TTITLE1=Shake What You Got
TTITLE2=Hot Thing
TTITLE3=Walking On Air
TTITLE4=Black Bird
TTITLE5=Honey Put Your Trust In Me
TTITLE6=Let Me Taste Your Love
TTITLE7=We'll Try Again
TTITLE8=I Can't Control This Feelin
TTITLE9=Be Good To Me
TTITLE10=Shake 'N' Bump Pt. 1
TTITLE11=Shake 'N' Bump Pt. 2
TTITLE12=Lady Lady Lady
TTITLE13=Steppin' Out
TTITLE14=Your Love Move Me Baby
TTITLE15=Your Love Move Me Baby Pt. 2
TTITLE16=Let Me Wrap You In My Love
TTITLE17=Wonderful Love
EXTD=
EXTT0=
EXTT1=
EXTT2=
EXTT3=
EXTT4=
EXTT5=
EXTT6=
EXTT7=
EXTT8=
EXTT9=
EXTT10=
EXTT11=
EXTT12=
EXTT13=
EXTT14=
EXTT15=
EXTT16=
EXTT17=
PLAYORDER=
